<svg xmlns="http://www.w3.org/2000/svg" viewBox="0 0 81.9 71.52" role="img" aria-label="WOPR-inspired Grafana plugin logo">
  <defs>
    <style>
      .cls-1{fill:#84aff1;}
      .cls-2{fill:#3865ab;}
      .cls-3{fill:url(#linear-gradient);}
      .cls-4{fill:#ff0000;}
      .cls-5{fill:#00ff00;}
    </style>
    <linearGradient id="linear-gradient" x1="20" y1="20" x2="62" y2="20" gradientUnits="userSpaceOnUse">
      <stop offset="0" stop-color="#f2cc0c"/>
      <stop offset="1" stop-color="#ff9830"/>
    </linearGradient>
  </defs>

  <g transform="translate(5.19 0) scale(1.1175)">
    <rect class="cls-2" x="3" y="3" width="58" height="58" rx="12" opacity="1"/>

    <rect class="cls-1" x="7" y="8" width="50" height="48" rx="10" opacity="0.25"/>
    <rect class="cls-2" x="7" y="8" width="50" height="48" rx="10" opacity="0.95"/>

    <!-- top ridge (extended lower + rounded bottom corners) -->
    <path class="cls-1" opacity="0.22"
      d="M14 10
         h36
         a8 8 0 0 1 8 8
         v8
         a3 3 0 0 1 -3 3
         H9
         a3 3 0 0 1 -3 -3
         v-8
         a8 8 0 0 1 8 -8
         z"/>

    <rect class="cls-1" x="12" y="16" width="30" height="12" rx="3" opacity="0.20"/>
    <rect class="cls-2" x="12.8" y="16.8" width="28.4" height="10.4" rx="2.6" opacity="0.55"/>

    <rect class="cls-1" x="44" y="16" width="8" height="12" rx="3" opacity="0.20"/>
    <rect class="cls-2" x="44.8" y="16.8" width="6.4" height="10.4" rx="2.6" opacity="0.55"/>

    <g>
      <circle class="cls-3" cx="15" cy="19" r="1"/>
      <circle class="cls-4" cx="20" cy="19" r="1" opacity="0.9"/>
      <circle class="cls-3" cx="25" cy="19" r="1"/>
      <circle class="cls-3" cx="30" cy="19" r="1" opacity="0.9"/>
      <circle class="cls-5" cx="35" cy="19" r="1"/>

      <circle class="cls-3" cx="15" cy="22" r="1" opacity="0.9"/>
      <circle class="cls-3" cx="20" cy="22" r="1"/>
      <circle class="cls-3" cx="25" cy="22" r="1" opacity="0.9"/>
      <circle class="cls-5" cx="30" cy="22" r="1"/>
      <circle class="cls-3" cx="35" cy="22" r="1" opacity="0.9"/>

      <circle class="cls-3" cx="15" cy="25" r="1"/>
      <circle class="cls-3" cx="20" cy="25" r="1" opacity="0.9"/>
      <circle class="cls-3" cx="25" cy="25" r="1"/>
      <circle class="cls-3" cx="30" cy="25" r="1" opacity="0.9"/>
      <circle class="cls-3" cx="35" cy="25" r="1"/>

      <circle class="cls-3" cx="46.5" cy="21" r="1.1"/>
      <circle class="cls-3" cx="49.5" cy="21" r="1.1" opacity="0.9"/>
      <circle class="cls-3" cx="46.5" cy="24" r="1.1" opacity="0.9"/>
      <circle class="cls-3" cx="49.5" cy="24" r="1.1"/>
    </g>

    <rect class="cls-1" x="12" y="31" width="40" height="7" rx="3.5" opacity="0.14"/>

    <rect class="cls-1" x="12" y="40" width="18" height="13" rx="3" opacity="0.18"/>
    <rect class="cls-1" x="34" y="40" width="18" height="13" rx="3" opacity="0.18"/>
    <rect class="cls-2" x="13.4" y="41.4" width="15.2" height="10.2" rx="2.6" opacity="0.35"/>
    <rect class="cls-2" x="35.4" y="41.4" width="15.2" height="10.2" rx="2.6" opacity="0.35"/>

    <circle class="cls-3" cx="27" cy="46.5" r="2.0" opacity="0.95"/>
    <circle class="cls-4" cx="49" cy="46.5" r="2.0" opacity="0.95"/>
  </g>
</svg>